<svg xmlns="http://www.w3.org/2000/svg" viewBox="0 0 819 1001"><title>deathtoll</title><g id="Layer_2" data-name="Layer 2"><g id="Layer_3" data-name="Layer 3"><rect y="853" width="16.37" height="148" fill="#fbb03b"/><rect x="38.22" y="837.97" width="16.37" height="163.03" fill="#fbb03b"/><rect x="76.44" y="820.27" width="16.37" height="180.73" fill="#fbb03b"/><rect x="114.66" y="799.91" width="16.37" height="201.09" fill="#fbb03b"/><rect x="152.88" y="776.91" width="16.37" height="224.09" fill="#fbb03b"/><rect x="191.1" y="751.3" width="16.37" height="249.7" fill="#fbb03b"/><rect x="229.32" y="723.09" width="16.37" height="277.91" fill="#fbb03b"/><rect x="267.54" y="692.29" width="16.37" height="308.71" fill="#fbb03b"/><rect x="305.76" y="658.93" width="16.37" height="342.07" fill="#fbb03b"/><rect x="343.98" y="623.03" width="16.37" height="377.97" fill="#fbb03b"/><rect x="382.2" y="584.59" width="16.37" height="416.41" fill="#fbb03b"/><rect x="420.42" y="543.64" width="16.37" height="457.36" fill="#fbb03b"/><rect x="458.65" y="500.2" width="16.37" height="500.8" fill="#fbb03b"/><rect x="496.87" y="454.29" width="16.37" height="546.71" fill="#fbb03b"/><rect x="535.09" y="405.92" width="16.37" height="595.08" fill="#fbb03b"/><rect x="573.31" y="355.1" width="16.37" height="645.9" fill="#fbb03b"/><rect x="611.53" y="301.87" width="16.37" height="699.13" fill="#fbb03b"/><rect x="649.75" y="246.23" width="16.37" height="754.77" fill="#fbb03b"/><rect x="687.97" y="188.21" width="16.37" height="812.79" fill="#fbb03b"/><rect x="726.19" y="127.82" width="16.37" height="873.18" fill="#fbb03b"/><rect x="764.41" y="65.07" width="16.37" height="935.93" fill="#fbb03b"/><rect x="802.63" width="16.37" height="1001" fill="#fbb03b"/></g></g></svg>