<svg xmlns="http://www.w3.org/2000/svg" viewBox="0 0 925.96 429.08"><title>markets</title><g id="Layer_2" data-name="Layer 2"><g id="Layer_3" data-name="Layer 3"><path id="sp" d="M5,225.83c2.87-11.5,3-24.24,10.52-33.56.78-1,2.29-2.13,3.41-1.58,3.13,1.53,1.06,2.87,2,4.79,4.77,9.63-7.37,25.54,1.76,31.63,3.2,2.13,6.88-3.65,9.23-6.75,3.74-5,.57-12.83,3.36-18.56,2.18-4.46,2.38-12.39,7.21-10.74,5.68,1.93.35,12.15,3.15,17.61.61,1.18,2,1.74,3,2.61,1.4,1.21,9.68-28.53,12-31.37,1-1.24,3-2.43,4.48-1.79,6.94,3,.8,16.85,5.61,23.33,1,1.31,3,2.34,4.5,1.85,5.8-1.86,3.7-11.19,8.19-16.4.68-.78,2-1.65,2.89-1.13,4.59,2.66-2.1,11.21.88,15.65.76,1.14,2.56,2.22,3.78,1.59,3.54-1.8-2.72-5,.7-3,5.2,3.11,3.59-5.89,8.2-11.36,1.91-2.27.91-3.71,4.13-4,1.94-.15,3.26,3.76,4.12,5.56,1.58,3.29-2.44,9,.67,10.88,6,3.68,4.08-16.19,12-18.94,1.66-.58,3.7.91,4.75,2.32,3.11,4.18-4,13.75,1,15.48,6.41,2.24,3.38-14,9.06-19,.79-.69,2.25,0,3.06-.72s.49-2.23,1.33-2.88,2.42-1.25,3.33-.58c6.55,4.82-6.42,20.5.79,24.38,3.89,2.09,5.51-10.46,9.93-9.42,2.79.66.92,4.21,2.8,6.29,5.62,6.22,12.82-16.45,13.29-17.43,3-6.13-3.05-19.66,3.47-19,1.57.15.6,28.77,11.53,31,2.54.52,3.85-3.66,5-5.86,8.8-17.12,2.36-32.53,16.71-40.6,5.42-3.06,4.75,8.32,10.7,14.23a4.26,4.26,0,0,0,4.39,1.08c7.41-3.55,3-16.19,8.36-23.2,1-1.27,2.84-2.55,4.36-2,14.95,5-.74,35.81,8.08,50.56,3.38,5.65,6.91-.63,5.78-1.82-.31-.33-.85,1.13-1.22.78-1-.91,2.08-1.82,2.55-3,4.78-12.4-7.65-29.27.4-39.84a3.48,3.48,0,0,1,3.71-1c4.34,1.68,1.71,8.28,4.26,12.82,1.65,3,4.85,6.4,7.29,4.7,9.06-6.33-4.67-30.21,5.62-29.94,11.85.32,3.34,26.59,8.17,37.81.78,1.79,1.94,4.37,3.89,4.37,19.51-.06-8-54,13.89-58.69,16.07-3.42,11,41.73,25.18,37.46,5.95-1.79,6.68-19.07,14-15.78,3.13,1.41,1.46,6.45,4,9.24.78.86,2.27,1.68,3.3,1.14,5.68-2.94.16-17.62,6.23-17.14,3.83.29,1.26,8.34,4.06,11.1,2.6,2.57,6,2.59,6.08,1.65.11-2.35,2.12,5.82,4.26,2.53,1.77-2.72-2.13,1.5,1.25,1.93,5.86.75,7.45-6.78,12.08-3.9,2.14,1.33,1.36,4.75,3.27,6.23a3.56,3.56,0,0,0,3.49.6c7.34-4,1.41-16.57,7.2-23.26s8.06,8.46,12.74,2.72,1.66-10.2,7.28-14.07c1.11-.77,2.94.14,4-.7,2.86-2.24-.13-7.12,3.12-8.7,1.3-.63,3.07.64,3.92,1.8,6.37,8.71-4.29,25.89,5,30.87,7.47,4,7.63-9.59,10.76-16.76,1.59-3.64-1.86-8.71.6-11.83,1-1.32,3.54.07,4.77-1,3-2.71-2.37-11.13,1.76-11.27,7.08-.25-5.42,18.2,1.22,20.82,6.87,2.7,5.66-21.31,16.4-8.18,1,1.23.1,3.43,1.24,4.48s2.83,1.55,3.94.8c5.53-3.73-3.67-17.59,3.07-18.48,3.6-.48.93,7.6,4,8.85a2.83,2.83,0,0,0,2.63-.82c4.74-4.24-.19-16.48,6.41-17.13,6.13-.6,2,16.68,7.91,16.44,11.49-.47,4.47-32.73,15.51-31.13,14.25,2.06,2.85,32.43,10.8,45.23,3.36,5.41,8,11.63,13.33,8.73,22.6-12.2-14-55.27,12.1-62.54,8.06-2.25,5.63,19.86,13.68,19.33,7.36-.47.66-21.59,8.46-21.51,2.16,0,.54,4.68,2.15,6.12a2.87,2.87,0,0,0,2.63.6c4-1.37,1-8.77,5.41-10.68,3.58-1.53,1.48,9.07,6.45,9.6,7.29.79,1.16-14.67,7.95-18.34,1.26-.68,3,.45,4,1.46,4.82,4.85.36,12.91,4.39,18.89.86,1.28,2.74,2.49,4.18,2,11.62-4.21,2.87-33.6,16.38-34,5.55-.17-.27,11.6,2.58,16.43,4,6.77,11.07,6.55,16.16,1.3,8.27-8.52,4.17-25.44,10.76-35.43,1.19-1.8,3-3.72,5.22-3.79,6.89-.24,7.74,10.55,13.67,7.27,4.22-2.34,1.45-9.87,5.72-12.79a2.26,2.26,0,0,1,2.55.28c2.73,2.56,1.49,7.14,2.1,10.81" fill="none" stroke="#000" stroke-linecap="round" stroke-linejoin="round" stroke-width="5"/><path id="sp-2" data-name="sp" d="M874.94,211c-1.89,12.35-5.64,42.93-15.34,40.56-2.73-.66.07-6.66-2.65-6.84-4.42-.3-1.71,10.77-6.42,11.6-.75.13-1.27-1-1.55-1.68-2-4.91,4-15.39-1.21-15.19-29.31,1.13-8,87.3-7.28,88,5.94,6.36-6.16,28.12-13.82,27.52-13.54-1.06,7.3-41.42-5.94-40.6-30.5,1.9,16.95,106.34-10.68,102.78-3-.39.57-6.52-1-9.18-1.92-3.29-1.16-13.23-5.76-12.64-10.83,1.41,1.05,20.75-5.58,28.92-2.66,3.27-5.76,3.06-7.62-1.09-14-31.39,26.28-105.39-7-108.29-6-.52-1.81,14.59-7.5,14.9-21.55,1.17-2.91-52.61-8.53-70.66-2-6.37-2.19-29.91-4.19-35.13-4.75-12.43,7.57-30.08-4-35.76-1.61-.8-3.8.82-4.9,2.24-1.29,1.65-.07,4.35-1.1,6.17-1.46,2.57-.85,3.76-2.63,7-3,5.58-4.62,15.83-9.53,10.55-1.92-2.07,1.31-8-1.43-7.79-2.37.21,1.35,7.21-1,7.06-31.59-2,10.41-67.34-4.7-94.95-2.32-4.23-5.21-1.53-7.09,3-2.16,5.23-.16,21.52-6.25,21.11-3.64-.24-4.64-30.85-6.94-33.86-.81-1.07.22-2.8-.34-4-.42-.92-1.69-1.27-2.07-2.22-1.52-3.77,3.21-10.7-.64-12-1.53-.51-2.68,2.07-3.27,3.57-2.52,6.38,4.35,17.89-2.33,17.75-2.66-.06-.32-5.69-2-7.73-1.28-1.53-3.75-1-4.66-3.11-12.31-27.91,28.53-91.2-1.75-93.41-2.13-.15-.28,4.59-1.7,6.19-4.61,5.15-9.74,8.7-16.12,6.46" fill="none" stroke="red" stroke-linecap="round" stroke-linejoin="round" stroke-width="5"/><path id="zoom" d="M2.5,359.3c.37-.52,1-.64,1.36-1.09,3.56-4.75,1.56-7.27,6-9.32,15.33-7.06,8,3.56,13.49,4.38,3.21.48,5.08-2.69,7.29-4.59,1.69-1.44,2.17-4.52,3-6.44.69-1.6-.34-3.65.43-5.21.41-.83,1.65-1,2.06-1.85.86-1.72-1.15-4.78.52-5.74C41,326.93,39,335,43.33,340.16c1.82,2.16,5.5,3.15,7.86,1.79,3.38-1.94.91-7.88,3.57-11,4.07-4.7,13.65-2.94,19.07.21,1.64.95.93,5.15,2.81,4.94,5.49-.6.55-12.1,4.43-16,6.38-6.5,15.28.79,22.62-12.16,1.31-2.31,4-1.64,5.64-3.32,2.14-2.2-.64-6.78,2.14-8.14,5-2.44,5.94,9,9.84,15.18,1.7,2.72-.23,4,3.54,6.14,8.42,4.68,7.14-14.81,11.54-22.43,2.86-5,6.64-8.47,9.23-14,2.45-5.25-1.25-17.1,5-17.36,4.39-.18-.29,9.37,2.35,13,1.88,2.56,2.53,5.6,6.2,5.17,8.29-1,9.16-11.75,10.57-10.05,2.06,2.48-.94,6.75,1,9.37a2.4,2.4,0,0,0,2.5.94c3.22-1.25-.14-9,3.32-8.65,4.94.52-3.94,12.61.49,14.85,8.57,4.33-1-25.86,11.08-25.32,10.25.46,8.06,38.84,11.61,42.89.57.65,3.8-3.7,5.45-3.59,2.79.19.78,4.7,2.46,7.06.95,1.35,3.29,1.27,4.16,2.67,3.31,5.4-5.46,16.94.59,18.89,1,.33.92-2.23,1.92-2.66,17.29-7.58,15.08,6.09,20.16,5.71,1.27-.1,1.52-2.88,2.78-2.65,1.44.27,2.11,1.81,3.27,1.5,1.76-.49,1.6-3.51,3.15-4.69s4.07.29,5.41-1c7.26-6.71-1.63-26.1,8.3-26.95,5.12-.43-.38,10.9,4.33,11.38,5,.52,8.71-12.35,13.76-5.36,3.33,4.61-2.14,12,2.71,15.41,3.59,2.52,7.11-3,9.35,1.48,1,2,0,4.67,1.12,6.62.72,1.28,1.95,3.34,3.36,2.89s.61-3.31,1.53-4.22S304,333.84,304.66,333s.43-2.4,1.21-3.31c2.53-3,8.14-.8,10.54-3.9,6.49-8.4.09-20.69,8.51-24.51,6.08-2.77,9.2,22.23,10.87,25.94,3.15,7-.5,15.35,4.29,21.79a2.58,2.58,0,0,0,2.63,1.08c7.38-2.84,1.72-14.76,6.42-21.79,2.07-3.1,2.27-5,1.9-1.24-.22,2.15,2,3.62,3.89,5.18,2.14,1.74,5.75.48,7.67,2.44,2.57,2.64-1.8,10.8,2,11,1,.07-.46-3.15.56-3,2.84.37,2.3,13.36,5.47,13.82,5.33.79,2.21-8.84,6.15-13.41,1.62-1.88,4.81-.08,6.83-1.39.9-.58.7-2.19,1.58-2.8,1.27-.88,3.45-1.86,2.75-.43-9,18.37-8.69,48.17,14.06,48.15,1.59,0-.91-3.47,0-4.78.71-1.05,2.38-1.86,3.54-1.35,2.6,1.13,1,6.07,3.16,7.9,2.55,2.14,5.59,3.85,4.52.76-1.25-3.62,4.91-11.4,8.14-10,4.26,1.86-.41,9.7,2.29,13.56s7.74.85,11.58-1.84c2.64-1.85,1-8.59,4.26-8.69,3.75-.11,0,6.63,3.3,8.33,2.54,1.31,4.54-4.3,3.89-1.53-.43,1.84,1.94,4,3.82,4.19,1.42.17,2.45-2.81,2.08-1.41-1.82,6.73-3.54,15.23,2.52,19.74,3.68,2.75,9.5-2,12.95-4.86,1.24-1,.64-3.45,1.9-4.45.79-.63,2.2.08,3-.54,3.12-2.45,4.24-8.61,5.68-12,3.2-7.56-6.42-22.84,1.76-24,1.63-.23.27,3.55,1.41,4.73,3.34,3.46,4.94-3.53,7.14-2.82,3.24,1.05.87,4.81,2.76,7.28,1,1.31,2.82,2.85,4.37,2.3,5.78-2-1.4-18.42,5.13-19.05,2.5-.24,0,6.25,1.89,4.6,2.45-2.14,1.24,4,4.6,5.13,2,.67,3.76-3.64,5.7-2.8,2.9,1.25.27,8,3.26,8.38,4.05.49,4.78-1.18,7.26-3.62,1.93-1.91-1.6-8.1,1.12-8.08,3.23,0-1.53,7.37,1,9.42,3.17,2.62,6.61,3.42,11.46,4.25,4.24.73,5.8-7.27,9.7-5.78,5.61,2.14-1,11.26,2.8,16.78s7.33,2.31,11.33,11.23c1.75,3.9-.81,6.43,4.08,8.73,6.56,3.08,5.5-13.81,12.7-17.72,2.46-1.34,8.27-4.27,9.5-2.29,0,.09-.15.26-.06.3,2.82,1.27,5.37-2.27,7.08-4.73,9.3-13.37-6.49-46.6,10-47,2.77-.07-1.23,6.92,1.22,8.23,6.73,3.61,10.11-23,18.33-20.32,1.9.62,0,4.42,1.47,5.81,2,1.88,5.66,3.14,8,1.72,17.48-10.79-2.3-59.22,17.94-61.33,5.75-.6-1.28,10.82,2.19,15.55,4,5.43-1.3,14.5,6.36,16.73,6.62,1.94,2.93-18.66,10.18-17.86,1.83.2-.68,4.81,1,5.42,4.41,1.56,10-9.22,10.38-5,0,.13-.4-.11-.39,0,.09,4.88,6.9,9.22,8.53,13.53,3.51,9.24-8.84,27.62,1.34,28.73,3.58.4-.32-7.78,3.16-8.06,14.72-1.2,4.84,26.4,4.84,42.2" fill="none" stroke="#000" stroke-linecap="round" stroke-linejoin="round" stroke-width="5"/><path id="zoom-2" data-name="zoom" d="M923.46,2.5c-12.16,28.76-18.85,42.7-35.11,63.36-1.64,2.07-1.45,7.1-3.6,7.78-4.35,1.38-1.5-6.67-6.68-9.19-1-.47-2.18,1.61-3.09,1-1.93-1.25.46-4.87-.7-6.85-1.76-3-2.71-9.9-6.49-9.71-28.84,1.47-9.62,52.76-15.07,67.79-5.19,14.33-8.06,27.26-18.17,38.82-5.35,6.11.05,23.11-9.46,23.24-3.17.05.66-7.47-1.93-9.29-9.8-6.89-18.53,25.94-27.85,19-5.82-4.31,4.18-19-2.84-19-34.71.11-7.48,71.79-35.39,89.66-1.87,1.2-4.84.48-6.45-1.12-2.41-2.4-1.36-8.55-4.52-8.26-7.23.65-1.22,20.18-7.71,18.32-4.2-1.2,3.83-12.44-.49-13.05-1.67-.24,0,4.89-1.69,4.76-11.46-.93,11-31.69-.51-33.81-42.48-7.83-17.56,96.65-36.59,134.18" fill="none" stroke="#009245" stroke-linecap="round" stroke-linejoin="round" stroke-width="5"/></g></g></svg>