<svg xmlns="http://www.w3.org/2000/svg" viewBox="0 0 819 112"><title>pre-deathtoll</title><g id="Layer_2" data-name="Layer 2"><g id="Layer_3" data-name="Layer 3"><rect width="16.37" height="112" fill="#fbb03b"/><rect x="38.22" width="16.37" height="112" fill="#fbb03b"/><rect x="76.44" width="16.37" height="112" fill="#fbb03b"/><rect x="114.66" width="16.37" height="112" fill="#fbb03b"/><rect x="152.88" width="16.37" height="112" fill="#fbb03b"/><rect x="191.1" width="16.37" height="112" fill="#fbb03b"/><rect x="229.32" width="16.37" height="112" fill="#fbb03b"/><rect x="267.54" width="16.37" height="112" fill="#fbb03b"/><rect x="305.76" width="16.37" height="112" fill="#fbb03b"/><rect x="343.98" width="16.37" height="112" fill="#fbb03b"/><rect x="382.2" width="16.37" height="112" fill="#fbb03b"/><rect x="420.42" width="16.37" height="112" fill="#fbb03b"/><rect x="458.65" width="16.37" height="112" fill="#fbb03b"/><rect x="496.87" width="16.37" height="112" fill="#fbb03b"/><rect x="535.09" width="16.37" height="112" fill="#fbb03b"/><rect x="573.31" width="16.37" height="112" fill="#fbb03b"/><rect x="611.53" width="16.37" height="112" fill="#fbb03b"/><rect x="649.75" width="16.37" height="112" fill="#fbb03b"/><rect x="687.97" width="16.37" height="112" fill="#fbb03b"/><rect x="726.19" width="16.37" height="112" fill="#fbb03b"/><rect x="764.41" width="16.37" height="112" fill="#fbb03b"/><rect x="802.63" width="16.37" height="112" fill="#fbb03b"/></g></g></svg>