<svg xmlns="http://www.w3.org/2000/svg" viewBox="0 0 1681.96 1369.03"><title>venice</title><g id="Layer_2" data-name="Layer 2"><g id="Layer_4" data-name="Layer 4"><path d="M1055.18,0c-3.34,8.3-6.31,16.78-10.14,24.85-2.67,5.62-4.21,8.13,3.86,11.55C1097,56.77,1145.34,77,1192.28,99.86c18.35,9,33.37,24.75,49.78,37.6,3.91,3.06,8.32,6.23,10.61,10.38a18.86,18.86,0,0,1,1.31,12.94c-.58,2.14-6.7,5.06-8.71,4.13-8.3-3.81-11.89,2.09-16.29,6.48-4.87,4.87-11.76,9.42-13.26,15.26-.77,3,8.06,8.72,12.8,12.93,18.36,16.32,36.73,32.63,55.42,48.57,1.58,1.35,6.73,1.06,8.24-.45,10.24-10.25,20-21,29.8-31.66,5.67-6.21,11.71-8.34,18.79-2.45,7.71,6.42,8.8,13.86,3,21.86-6.54,9-13.25,17.94-20,26.81-7.09,9.3-5.75,12.17,5.51,16.73,24.48,9.92,48.45,21.1,73.09,30.6,22,8.48,44.64,15.4,67,23,17.82,6.06,17.79,6.05,23.91-12,5.63-16.62,11.45-33.18,16.93-49.86,1.92-5.86,4.33-12.55,11.36-9.56,5.38,2.3,9.93,8,13.16,13.28,1.64,2.66.27,7.89-1,11.5-8.55,24.25-19.16,47.93-25.64,72.7-4.64,17.75-13.7,34.46-12.8,54,.5,10.74-3,22-6.34,32.48-2.8,8.66-.26,15,5.47,20.15,16.47,14.71,19.75,36.3,29.15,54.66,1.59,3.12-.16,7.84.17,11.77.16,2,1.51,4,2.32,6,1.34-1.24,3.14-2.23,4-3.76,39.34-74.15,49-89.29,53.43-116.51,2.18-13.39,12-25.68,19-38.11a205.36,205.36,0,0,1,17.18-26.09c2.27-2.88,8-5.1,11.4-4.36,2.8.61,5.87,5.88,6.37,9.44s-1.73,7.53-3.51,10.93c-6.61,12.59-14,24.8-20.23,37.55-16.12,32.84-52.26,109.19-71.82,152.13-4.45,9.77-.85,25.93-2.6,42-1.13,10.42.26,15.5,12.6,17.28,8.93,1.3,11.7,1.65,14.5-7.86,5.74-19.5,13.78-38.3,20.49-57.53s11.44-39.3,19.69-57.82c16.37-36.73,34.68-72.6,51.9-109,3.35-7.07,8.9-6.16,13.69-4.14,7,2.94,12.55,8.21,8.47,16.84-4.31,9.1-9.89,17.6-14.24,26.68-24.95,52.17-26.31,55.61-78.27,178.17-8.25,19.46-3.91,25.48,17.2,26.58a235.41,235.41,0,0,1,36.19,5.16c3.58.75,6.2,5.52,9.54,8.07,3.12,2.37,6.39,4.9,10,6.18,9.07,3.2,15.23,7.88,14,18.79-.9,8-5.11,10.56-12.37,6.62-1.58-.85-3.37-1.65-4.48-3-12.89-15.17-31.17-18.12-49.14-20.85-4.67-.71-11.9,1.89-14.83,5.51-12.88,15.92-24.68,32.72-36.63,49.38-1,1.34-.91,4.94.15,6,14.81,14.58,17.72,33.76,21.14,52.85.92,5.16,3.32,10.06,4.19,15.22,1,5.89-.66,12-7.56,11.73-3.67-.16-8.87-4.38-10.34-8-3.88-9.55-4.91-20.33-9.26-29.6a259.66,259.66,0,0,0-22.36-38.87c-4.06-5.78-11.2-8.77-19.89-8.57-14.62.35-29.79.36-42-10.23-1.57-1.36-4.6-2.95-4.44-4.08,2.07-14.91-10.52-12.81-18.27-15.5-6-2.06-11.86-4.23-13,7.34-1.78,18.78-6.53,37.29-10.11,55.89-.91,4.75-3.42,9.59-2.92,14.14,1.32,12,10.34,19.17,23.22,19.75,4.73.21,9.56.63,14.19-.06,27.13-4,43.51,11,57.74,31.12,5.21,7.37,7.73,18.62,20.63,18,1.57-.08,4.27,3.91,4.89,6.4,2.59,10.27-6,12.88-12.5,16-5.73,2.77-10.87,2.78-15.39-4.48-8.91-14.31-19.18-27.8-29.42-41.24-2.09-2.75-6.29-4.31-9.83-5.48-19.69-6.48-33.13-2.38-44.92,13.53-5.13,6.92-9.93,14.08-15,21-2.37,3.22-4.83,5.42,1.76,6.93,9.14,2.09,9.48,10,6.45,16.24-1,2.09-10.5,2.24-14.57.2-8.07-4-14.35-5.54-22.35.59-7.34,5.61-16.21,9.25-24.47,13.63-14.21,7.52-8.18,18-9.63,19.73-12.07,14.72,4.77,20.31,9.88,28.95,3.82,6.45,9.4,12,19.34,12.85s15.37,10.88,16.13,20.57c.25,3.19-5.67,8.53-9.78,9.93-4.27,1.45-11.62,1.19-14.39-1.57a461.49,461.49,0,0,1-34.62-38.79c-4.35-5.45-7.34-5.75-13.3-3.32-7.38,3-15.37,4.81-23.25,6.26-4.94.9-10.22-.26-15.25.31-14,1.6-15.29,6.49-10.17,18.86,5.66,13.66,8.77,28.48,11.64,43.06.53,2.68-5.13,9-8.34,9.34-3.47.32-10.69-4.57-10.62-7,.53-19.18-11.72-32.85-19.31-48.48-6.26-12.87-3.92-19,8.85-25.33a82.45,82.45,0,0,1,44-8.72c6.15.48,10.28-1.31,13-7.28a18.93,18.93,0,0,1,6.91-7.92c6.94-4.3,10.3-9.94,9-18.06-1.15-7.1,2.64-10.14,8.7-12.72,8.88-3.8,17.28-8.71,25.92-13.06,4.37-2.2,5.83-5.33.81-7.58-21-9.46-30.59-30-44.69-46-11.12-12.62-20.25-27-30.7-40.23-1.22-1.55-6.05-2.11-7.91-1-16.76,10.14-32.9,21.35-49.92,31-10.8,6.14-22.89,10-34.21,15.28-5.8,2.71-11.18,6.31-17.23,9.78,22.13,19.47,30.66,21.72,43.67,53.75,5.43,13.36,10.49,26.67,19,38.56,5,7.06-.33,16-5.43,22.5-14,17.76-38.64,23.41-49.12,44.32-3.56,7.12-4.58,15.48-7.11,23.16-5.06,15.36-20.22,22.94-38.1,20-2.53-.42-5.59,2.32-8.41,3.6,1.57,2,2.74,4.75,4.8,5.85,4.87,2.62,13.53,3.4,14.6,6.81,2.25,7.24,3.11,16.78.17,23.45-13,29.41-14.06,60.6-16.27,91.71-.49,6.88-4.07,9.34-10.57,9.53-7.65.21-7.56-4.63-7.74-10.11-1-31,6-60.66,14.86-90,2.18-7.24,2.4-11.3-5.79-14.68-10.64-4.4-13.6-13.3-10.91-26.42.5-2.45,2-5,1.67-7.24-.45-2.91-2.3-5.6-3.55-8.39-2.33,1.81-5.9,3.14-6.81,5.51-28.43,73.36-25.47,73.64-47.88,143.48-1.7,5.28-6.05,9.65-8.49,14.77-10.73,22.46-20.11,45.64-32,67.45-19.45,35.62-36.06,72.35-48.35,111-2.69,8.43-7.74,10.6-14.58,8.57-7.6-2.25-7.81-9.16-5.34-15.3,13.15-32.58,26.16-65.23,40.25-97.4,4.25-9.69,12.37-17.6,17.62-27,3.55-6.33,5.49-13.66,7.32-20.76.85-3.3-46-21.9-74.7-40.64-15.11-9.86-27.09-24.68-40-37.77-5.31-5.39-7.68-7-12.1,1.24-17.95,33.39-29,69.2-39.2,105.44a108.82,108.82,0,0,1-24,43.71c-5.69,6.35-8,15.69-12,23.58-4.22,8.25-15.13,12.11-21.58,7.11-7.5-5.8-5.22-13.33-.53-19.25,6.94-8.77,7.66-14.52-3.81-20.06-19-9.15-37.51-19.16-55.94-29.34-12.56-6.95-25.41-12.94-37.36-21.61-24.2-17.54-54.14-21.87-82.77-28.33-18.76-4.24-9.26-19-9.7-39.89-.39-19,.31-38.19-8.27-56.07a49.15,49.15,0,0,1-4.42-14.35c-.9-6.55-1.14-11.64,8.79-13.66,37.47-7.6,74.35-18.19,111.93-25,34.91-6.32,70.45-9.12,105.67-13.73,13.47-1.76,26.8-4.69,40.29-6.17,5.92-.65,4.59-3.13,4.14-6.95-2.42-20.33-4.84-40.67-6.51-61.07-.5-6.08-2.16-8.18-8.27-8.11-9.76.12-20.18,1.42-29.17-1.42a390.07,390.07,0,0,1-54.73-21.83c-14.64-7.21-27.43-18.17-42-25.59-7.44-3.79-17.42-5.68-25.35-4-3.82.79-7.49,11.63-7.86,18.1-1.18,20.77-8.83,39.89-19.6,56.13C664,955.36,649,964.91,635.22,973.07a203.19,203.19,0,0,1-47.35,20.37c-16.79,4.77-31.31,13.1-45.34,22.44-9.22,6.13-17.07,14.48-24.87,22.48-1.35,1.38-.37,6.64,1.2,9,19.11,28.72,37.19,46.5,39.22,73.8,1.47,19.75.61,39.69.36,59.54-.19,15.58-3.16,19.33-14.51,17.7-2.95-.42-5.64-4.54-7.85-7.42-.88-1.14-.66-3.72-.07-5.32,5.61-15.07.93-30.57,2.16-45.8,1.08-13.34-.87-25.39-9.36-36.52-10.87-14.25-21-29.12-30.74-44.15-3.59-5.53-6.82-5-11.5-2.46-4.42,2.43-9.38,4-13.49,6.79-16.63,11.4-35.41,12.91-54.71,12.94-11.29,0-23.2-2.65-32.94,6.3a8.67,8.67,0,0,1-6,2.06c-19.07-2.22-30.75,11.68-44.86,20.26-5.83,3.54-11.15,8.15-17.33,10.87-9.61,4.23-10.91,11.48-9.78,20.46.85,6.77,1.66,13.57,1.92,20.38.18,4.77,1.72,10.89-6.34,11.31-7,.38-14.45,1.14-15.2-8.89-2.09-27.94,1.57-57.1-10.56-89.14-3.42-9-2.8-16.35,9-20.92,23.35-9.07,46-19.92,68.73-30.52,2.17-1,4.55-6.17,3.75-8.2-5.84-14.93-7.08-32.13-23.34-41.83-16.53-9.87-14.54-28.29-15.27-43.76-2.18-46.57-18.38-74.59-64.66-191.13-2.33-5.88-2.94-12.44-7.15-19.29-2,6.71-5.48,13.4-5.61,20.14-.26,13.84-8.34,23.62-15.35,33.87C205.4,800.47,182.8,832,161,864.17c-3.14,4.62-2.17,11.87-4.9,16.94-3.54,6.57-9.07,12-13.42,18.21-8.89,12.61-17.9,25.08-19.38,41.36-.89,9.83-20.66,21.05-56.85,93.72-8.85,17.78-20.35,29.28-42,24.61-3.48-.75-7.26-.09-10.9-.11-13.4,0-17-6-10.2-17.32,9.15-15.32,212.92-354.17,222.17-369.48,1.29-2.13,4.15-4.82,6.17-4.73,9.65.43,11.7-7.64,15.38-13.33,5.77-8.91,9.52-19.3,16.12-27.44,6.06-7.47,7.27-21.27,22.22-19.71,1.82.19,4.32-6.07,6.52-9.33,7.53-11.16,14.05-23.24,23-33.13,5.18-5.74,14.32-7.87,21.57-11.82,14.83-8.09,29.59-16.33,44.4-24.46,13.22-7.26,13.7-9.87,4.95-22.32-1.7-2.43-1.8-5.95-2.91-8.86s-1.92-7.53-3.94-8.22c-18.47-6.31-25.68-22.47-30.74-38.29-3.9-12.14-11.67-18-21.21-23.28-13.56-7.52-25-18-42-20.63-9.17-1.42-18.33-8.23-29.14-8.1-1.3,0-4.12-5.2-3.78-7.65,2.42-17.35,5.49-34.62,8.36-51.91,1.39-8.39,8-7,12.75-5.46,13.6,4.29,27.05,9.17,40.23,14.61,14.78,6.09,29.51,13,38.89,26.63,7.91,11.47,21.63,11.26,32,17.8,16.58,10.44,31.13,22,40.32,39.41,17.63,33.36,34.77,67,52.55,100.25,4.67,8.74,11.73,16.22,16.17,25,2.78,5.52,2.53,12.52,4,18.77.77,3.31,1.53,7.24,3.76,9.31,1.13,1,6.3-.58,8.31-2.44,16.47-15.26,34.4-29.16,44.46-50.31,3.77-7.91,9.8-14.77,14.89-22,13.35-19.06,28.85-36.3,43.83-54,35.32-41.81,59.7-39.88,88.06-58.42,33.69-22,72.2-33.63,107.6-51.85,6.28-3.24,8-5,4.47-12.77-7.61-16.89-12.41-35-19.19-52.32a45.65,45.65,0,0,0-10.78-15.69c-21.93-21-46.34-39.18-73.7-52.17-31.58-15-64.3-27.62-96.75-40.73-2.43-1-8.34,1.44-9.74,3.92-12,21.24-23.27,42.86-34.75,64.39a3.53,3.53,0,0,0-.47,2.1c3.38,18.33-8.95,30.13-17.76,43.52-10.8,16.44-21.45,33-31.49,49.9-4.95,8.34-10.82,7.81-16.93,3.1-52.14-40.1-43-31.36-126.75-113.61-9-8.83-8.93-14.62-1.5-22.1,5.9-6,11.28-5.82,16.62.38,7.77,9,15.62,18,23.1,27.2,5.32,6.56,9.93,10.13,16.81,1.41a97.74,97.74,0,0,1,17.06-16.83c2.74-2.1,7.68-1.33,11.61-1.87.19,3.7,1.95,8.49.28,10.88-20.21,28.78-27.78,26.25-20.15,34.58,18.44,20.12,39.53,37,62.24,52,4.08,2.69,5.75,3.52,8.84-1.2,36.71-56.08,42.2-59.91,41.65-65-2.25-20.87,11.46-35.89,19.45-52.92,4.25-9.07,10.13-17.37,14.85-26.26.74-1.39-.15-5.12-1.43-5.9-12.56-7.69-25.28-15.13-38.2-22.2-1.38-.75-4.89.68-6.41,2.15-52,49.86-42.27,44.72-60.19,61.83-2.91,2.78-8.66,2.59-13.11,3.76.5-4.46-.55-10.06,1.75-13.19,14.48-19.71,29.69-38.88,44.72-58.19a30.65,30.65,0,0,1,4.65-4.6c13.88-11.59,13.45-11.17,1.49-24.18-17.74-19.31-41.77-29.17-62.91-43.34-6.57-4.41-13.46-8.33-20.15-12.56-6-3.78-6-18.41,0-27.45,5-7.56,11.13-4,16-.51C484.3,45,520,64.3,549.09,92.7c4.6,4.49,9,9.17,13.55,13.72,23.27,23.38,53.37,35.34,83.15,46.39a421,421,0,0,1,78.79,39.27c26.35,16.67,52.4,33.89,77.69,52.1,16.11,11.6,23.66,44.09,40,78,2,4.2,9.42,7.47,14.69,8.07,10.78,1.24,21.81.17,32.73.42,26.09.6,52.18,1.29,78.27,2.23,5.95.21,8.24-1.45,10.13-7.72,5-16.71,11.68-32.94,17.69-49.36a3.08,3.08,0,0,1,.59-.92c20-22.35,24.77-51.19,33.54-78.33.22-.67.82-1.25.89-1.92,1-9.06,5.16-18.18-8.66-23-12.66-4.44-23.57-12.12-38-13.75-14.19-1.61-27.54-9.74-41.56-14-30.17-9.17-24.54-9.83-36.25,15.15-8.36,17.82-25.54,20.57-40,27.67-7.86,3.86-14.26-1.48-18.17-10.41C843.34,165.28,836.66,155,830,145c-1.5-2.29-6.25-3.67-9.38-3.45-14.69,1-29.4,2.24-44,4.29-12.75,1.79-23.52-2.91-33.58-9.2-43.68-27.29-87.54-22.49-159.69-63.9-8.62-5-10.1-17.46-7.08-28.52,4-14.66,7.56-29.44,11.31-44.17H616c2.82,1.75,5.42,4.12,8.47,5.17q100,34.28,200,68.29c15.59,5.31,15.63,5.3,19.72-10.12,1.55-5.86,2.07-12.18,4.64-17.53,3.14-6.51-1-7.85-5.08-9.12-20-6.3-37.58-17.26-54.74-28.88-2.3-1.56-3.23-5.16-4.79-7.81h41.51c1.72,1.58,3.17,3.75,5.19,4.64C881.34,26.75,931.65,49,982.27,70.56c16.21,6.89,16.61,6,23.6-9.83,5.81-13.11,5.8-13.09-7.79-17.73a68,68,0,0,1-7-2.81c-21.32-10-42.74-19.82-63.84-30.29C923.34,8,920.74,3.37,917.53,0h56.81c14.73,6.51,29.44,13.06,44.25,19.4.77.32,3-.88,3.38-1.85,2.51-5.77,4.7-11.68,7-17.55ZM609.56,662.09l-3,1.19c0,14.44.21,14.65-10,24.43-5.3,5.08-8.49,10.32-7.67,18,.4,3.79-.7,7.82-1.51,11.65-3.09,14.52-.52,20.46,11,25.33,19.16,8.07,38.09,16.71,57.53,24,6.16,2.32,7.16,5.24,7.68,10.89.36,3.9,2.54,9.1,5.6,11,6.62,4.11,14.44,6.25,21.53,9.7,2.17,1.05,4.91,3.66,5,5.71.51,8,1.12,16.15-.19,23.94-3.11,18.43-3.54,18.36,14.29,18.28.73,0,1.46-.06,2.18,0,5.61.53,8.55-.65,10.29-7.42,3.81-14.88,9.5-29.28,14.46-43.86,3.4-10,6.73-16.77-6-26.49-16.33-12.49-33.6-23.26-50.15-35.21-11.92-8.61-21.76-21.51-21.84-36.38-.09-17.33,4.17-34.76,7.22-52,2.87-16.31,16.65-24.92,27-35.77,11.7-12.22,12.83-11.16,29.17-5.77,20.18,6.66,37.1,20.62,59,23.67,18.66,2.6,18.06,3.79,30.19-11.42,4-5,2.74-7-1.06-10.27C777.87,577,744.41,549.43,721.24,512c-10.39-16.78-21.35-33.23-31.53-50.13-3.45-5.72-5.78-6.88-11.52-2.5-19.59,14.95-40,28.44-53,50.81C610.84,535,594,558.29,578.47,582.39c-1.32,2.05-2,5.76-1.06,7.81,6,13,12.86,25.65,18.78,38.7C601.12,639.75,605.14,651,609.56,662.09Zm65.65,29.39-3.05,1.09c5.87,8.24,10.2,18.55,17.93,24.32,20.12,15,41.8,27.93,62.7,41.91,3.85,2.57,9.57,5.91,9.94,9.39.92,8.44,6.43,10.07,12.44,12.67,4.92,2.12,9.34,5.39,14,8.08,15.53,8.88,30.38,19.47,46.82,26.12,28.06,11.36,40.82,30.65,58.77,46.9,5.14,4.65,10,7,15.91-.23,5.34-6.61,28.81-1.44,23.21-18.73-.86-2.65-.33-5.78-.35-8.69-.08-14-10-27.59-23.9-30.81-7.44-1.73-9.72-5.87-8.73-12.37A41.71,41.71,0,0,1,905,779c3.71-7.44,4-13-3.07-19.63a206.44,206.44,0,0,1-28.66-33.14c-4.56-6.66-5.73-15.94-7.26-24.26-1.27-6.94,2.71-10.16,10-11.07,13.48-1.68,26.86-4.28,40.23-6.8,7.89-1.48,12.93-4.52,5.91-13.19-1.95-2.4-2.55-5.88-3.85-8.84-6.14-14-12-28.18-18.77-41.91-1.2-2.43-6.25-4.36-9.39-4.19-14.71.8-29.36,2.84-44.07,3.56-6.73.33-11.06,2.09-15.22,7.89-5,6.94-11.2,15.79-18.46,17.64-10.35,2.65-22.61,1.49-33.19-1.3-16.87-4.44-33.25-11-49.43-17.72-17.25-7.12-16.41-7-28.48,4.92C684.31,647.72,675.29,667.46,675.21,691.48ZM510.58,717.63c-2.83-22.35-6.79-44.64-8.09-67.08-.88-15.14-8.61-14.47-20.25-16.19-17.91-2.64-35.47-8.91-44.82-27.58-7.72-15.41-16.26-30.44-24.84-45.4-4.38-7.64-10.3-10.19-19.65-6.51-24.29,9.54-42.38,25.47-57.92,46.43-12.39,16.72-21.27,35.93-38.1,50-9.62,8-14.71,21.92-20.54,33.82C274,689.88,273.69,696.73,275,702c2.49,10,7,19.48,10.38,29.26,7.54,21.61,7.18,21.19,27.11,7.82,4.37-2.94,15-4,17-1.48,4.63,5.92,2.67,13.88-4.63,18.55-4.51,2.89-9.15,5.84-14.13,7.68-15.58,5.74-16.93,8.56-8.64,23.2,1,1.79,5,3.27,7.13,2.81,16-3.41,25.62-6.92,156.6-45.17,5.55-1.62,8.16-2.93,3.84-9.36-2.12-3.15-2.11-10.36.14-13.07,4.5-5.42,27.12-.42,33.74,2C511.33,727.1,512.5,723.92,510.58,717.63Zm854-201c9.93-2.79,51-15.59,70.65-22.13,4.14-1.37,9-4.3,10.93-7.91,13.11-24.8,28.41-48.33,30.18-78.24.74-12.45-2-15.72-12.2-17.95-22.32-4.87-44.52-10.3-66.84-15.19-7.28-1.59-12.81.2-16.15,8.34-5.43,13.3-12.89,25.78-18.06,39.16-3.74,9.69-10.86,11.18-18,8.14a223.9,223.9,0,0,1-35-19.09c-18.88-12.43-37.36-25.52-55.44-39.08-7.14-5.35-10-2.54-13.83,3.33-11.69,18.1-23.63,36-35.59,53.95-9.25,13.85-9.29,13.74,4.65,24.28,4.6,3.48,8.72,7.61,13.43,10.91,12.93,9.05,22.84,23.54,41.22,23.11,1.67,0,3.38,2.42,5.1,3.69,11.77,8.7,23.58,17.34,35.29,26.1,6.5,4.86,12.89,4.41,17.86-1.52C1333.24,504,1346.64,510.78,1364.55,516.66Zm-320,613.87c1-.89,3.86-2.2,4.52-4.22,8.27-25.54,15.8-51.32,24.39-76.74,8.73-25.88,11.86-54.21,31.89-75.45,1.38-1.46,1.07-6.14-.21-8.24-10.05-16.48-20.45-32.76-31-48.91a8.24,8.24,0,0,0-6.28-3.15c-9.25.67-18.45,2-27.67,3.08-7.2.86-12.22-.7-14.34-9-1.95-7.56-5.79-14.63-8.54-22-2.29-6.15-4.81-8.56-12.56-6.46-11.42,3.1-22.09,6.71-32.35,12.93-16.45,10-34.4,17.55-50.6,27.88-9.44,6-13.33,16.37-11.91,28.59,1.93,16.7,5,32.7,11.08,48.68,6.55,17.18,9.65,35.79,13,54,1.53,8.27,3.66,6.91,8.56,3.08,18.69-14.59,37.93-28.5,56.08-43.73,13.81-11.59,22.31.07,29.33,4,8.77,4.88,8.58,10.61,3.51,18.59-13,20.53-25.82,41.25-37.88,62.37-7.8,13.64-7,13.71,7.09,20.77,6.5,3.26,9.54,2.19,11.53-4.78,3.33-11.69,6.75-23.41,11.18-34.7,1.08-2.76,6.25-5.33,9.51-5.29,2.11,0,5.36,4.71,5.93,7.72,1.25,6.55-3.66,16.51-11,42.36-.49,1.71.34,5.35,1.31,5.65C1033.52,1128.93,1038.2,1129.42,1044.57,1130.53Zm280.56-495.44c-5.06-10.61-8.56-23.86-16.5-33.44-19.47-23.5-40.39-45.87-66.48-62.67-6.34-4.09-9.93-3.06-14,2.43q-28.5,38.64-57.29,77c-3.16,4.18-7.41,7.6-11.43,11-11.09,9.5-28.43,13.1-29.78,31.86-.1,1.4-2.27,2.74-3.64,3.93-5.16,4.51-10,9.65-15.7,13.23-7.38,4.59-5,8.5-1,13.62,14.06,18.15,29.24,35.68,36.89,57.88,3,8.77,8.24,9.35,15.7,6,23.41-10.44,47.51-19.53,70.11-31.46,15.08-8,28.48-19.39,41.86-30.21,12.08-9.77,21.6-24,35-30.43C1322.7,657.37,1322.42,647.3,1325.13,635.09ZM856.79,599.82c6.46-.51,13-.75,19.37-1.62,5.14-.69,7.25-2.23,3.26-8-5.41-7.87-11-16.41-13.3-25.48-7.24-28-2.49-56.34,5.62-82.89,9.32-30.5,11.85-61.58,15.87-92.67.81-6.28-.39-11.09-8.4-9.64-17.91,3.23-36.9,3.8-53.48,10.4-38.6,15.35-76,33.7-114,50.62-5.39,2.4-6.68,4.65-3.66,10.18,19.94,36.4,40.21,72.46,72,100.4C805.2,573.07,822.15,603,856.79,599.82Zm-463.07,460.3c45.79,2,79.28-12,108-40.54,12.31-12.23,27.85-21.38,42.5-31.05,6.2-4.08,9.07-6.67,4.33-14-8.76-13.65-16.24-28.12-24.91-41.84-3-4.66-6.62-7.68-14.4-5.54-34.45,9.47-69.26,17.65-104,26-6.64,1.61-13.78,3.08-17.67-5.45-4-8.74-7.73-17.63-12.42-26-4.58-8.17-14.32-9.06-26.1-2.31-8.59,4.92-.65,10.08,1.26,14.26,10.85,23.72,25.44,45.69,30.48,72.05,3.6,18.83-.24,26.68-17.7,33.3-20.75,7.86-41.15,16.63-61.61,25.24-1.93.81-4.83,3.83-4.47,4.87,2.64,7.76,4.51,16.76,9.86,22.17,2.16,2.18,12.52-3.48,19-6,2.6-1,4.87-3,7.13-4.79C352.48,1065.33,373.94,1056.49,393.72,1060.12Zm-42.79-163c3.51-.68,7.14-1,10.49-2.09,11.16-3.74,22-8.53,33.36-11.52,21.32-5.61,21.29-5.17,16.94-27.13-1.84-9.25-.42-15.88,11-19.08,30.62-8.56,60.88-18.42,91.16-28.17,2.67-.85,6.59-5,6.22-6.93-2.66-13.64-6.27-27.11-9.63-40.61-1-4-1.54-6.66-7.75-4.77-26.78,8.12-40.65,10.15-170.28,46.72-1.53.44-3.59,3.48-3.36,5,4.14,27.21,9,54.31,12.68,81.58C342.73,897.28,344.6,898.82,350.93,897.07Zm788.35-9c-2.42,3.81-4.2,8.55-5.59,8.43-4.59-.37-10.61-1.14-13.26-4.2-8.2-9.47-15-20.14-22.58-30.18-1.09-1.44-3.38-2-5.11-2.93.31,1.94,0,4.3,1,5.77,7.85,11.58,15.81,23.1,24,34.43,6.53,9,6,14.42-2.59,21.57-11.4,9.42-10,9.15-2.51,22.06,8,13.69,24,22.32,25.24,40.19.07,1,2.44,2.08,3.89,2.87,6.92,3.78,12.76.21,19.6-1.08,10.72-2,11-6.87,10.19-14.32-1.18-10.34,2.44-18.19,10.32-24.77,13.45-11.24,26.76-22.65,39.71-34.45,2.27-2.07,4.19-7,3.31-9.61-3.86-11.39-8.75-22.44-13.4-33.55-1.78-4.25-3-9.22-6.1-12.34-8.22-8.42-18.59-15-25.68-24.2-9.45-12.26-18.4-19.16-32.84-8.11-1.07.82-2.68.94-4.05,1.38-11.16,3.61-22.43,6.94-33.39,11.09-1.88.72-4.17,6-3.34,7.32C1110.24,850.06,1111.62,851.49,1139.28,888.12Zm280.6-208.77c0-12.23-4.52-20.71-16.25-24.4-10.16-3.19-20.38-6.29-30.74-8.76-5.57-1.32-9.94-.61-11.22,7.35a47.54,47.54,0,0,1-8.5,20.31c-14,18.69-29.18,36.5-43.33,55.08-2,2.7-2.63,8.79-1,11.59,4.71,8,11.49,14.71,16.44,22.57,15.79,25.09,38.46,43.75,59.23,64.18,1,1,5.1.93,5.88-.08,8.76-11.37,17-23.13,25.71-34.55,3.48-4.57,2.5-6.58-1.87-10.31-4.72-4-10.17-10.33-10.4-15.84C1402.65,737.7,1412.64,707.59,1419.88,679.35ZM881.65,533.9c-.09,23,9.61,37.24,20.21,51,1,1.36,4.75,2.34,6.11,1.56,12.28-7,25.67-14.16,26.86-30.11.77-10.39,5-18.39,10.3-26.47,4.75-7.2,9.44-14.44,14.21-21.64,3.93-5.94,2.86-10.82-3-14.71-19.2-12.72-20.23-27.89-12.81-49.17,6.83-19.59,15.85-38.44,24.23-57.47,2.32-5.26,1.5-5.94-4.21-8.1-17.31-6.55-34.87-2.86-52.29-3.41-1.7-.05-4.7,3-5.06,5a121.7,121.7,0,0,0-2.36,21.42C903.7,437.43,895.43,469.38,881.65,533.9ZM672,873.36c-.93-1.66-2.26-7.64-5-8.4-18.91-5.15-38.46-8.12-57.12-14-13.47-4.23-21.4-5.52-30.07,9.75C570.56,877,555,889.6,542.34,903.88c-3.14,3.54-8.41,6.26-3.76,12.64,11,15.07,22.18,30.07,32.12,45.83,5.41,8.56,10.36,8.13,18.11,4,8.51-4.49,18.3-6.71,26.47-11.66,14-8.47,27.85-17.44,40.5-27.76C671.78,913.91,668.61,893.88,672,873.36Zm95.6,255.22c2,20.61-5,38.66-14.24,56.07-3.38,6.34-1.62,9.23,4.33,12.53,16.86,9.33,33.76,18.75,49.8,29.4,9.13,6.06,14,2.51,17.8-4.89,11.3-22.27,17.11-39.17,45.08-114.47,1-2.64,2.08-5.49,2-8.19-.06-1.75-2.11-4.81-3.45-4.91-19.08-1.43-36.38,4.35-53.55,12.28-5.36,2.47-14.47,2-19.44-1.11-6.43-4-11-11.52-15.31-18.19-4-6.22-7.72-2.75-11.91-1.07-4,1.6-7.9,2-6.37,8.67C764.86,1105.81,765.91,1117.27,767.59,1128.58Zm390.85-634.26,2.16.81c-2.48,5.44-4.35,11.29-7.57,16.25-8.42,13-19.78,24.53-25.74,38.46-15.68,36.69-43.78,64.78-64.33,98-1.71,2.77-4,6.95-3.09,9.21a78.37,78.37,0,0,0,10.65,17.39c1.23,1.57,5.77,2.28,7.73,1.28,15.38-7.83,29.06-17.25,37.42-33.58,3.48-6.79,11.13-11.69,17.46-16.73,7.5-6,16.3-10.43,23.37-16.83,22.49-20.38,34.49-48.3,51-73a5.27,5.27,0,0,0,.06-4.84c-11.23-14.9-7.5-11.24-43.33-39.26a26.2,26.2,0,0,0-4.61-2.33Zm-83.79,290.29c-1.43-3.87-2-6.78-3.47-9.18-20.48-33.83-4.43-63-14.31-81.73-11.08-21.05-25.76-40.21-39.19-60-.72-1.05-3.79-1.55-5.16-.94-11.72,5.24-1.32,7.91,1.17,12.16s3.24,9.27,4.76,14c-4.3.08-9.31,1.64-12.78,0-17.56-8.4-17.42-8.69-31.47,5.36-3.08,3.09-6,6.37-9.28,9.22-3.67,3.17-4.22,5.34-.54,9.54,16.44,18.74,22.22,41.7,24.53,65.81,1.61,16.8,11.47,28.51,23.41,39.08,3.25,2.88,5.3,3.72,7.85-1.13,5.67-10.8,12.17-21.15,18-31.88,2.59-4.79,4.55-11.7,11.08-8.52,3.12,1.52,4.13,8.48,5,13.18.76,4.27-4.19,10.26-16.5,33.55-1,1.87-1,4.25-1.45,6.4,2-.08,4.32.38,6.12-.33,9.6-3.77,19.1-7.79,28.58-11.85A18.92,18.92,0,0,0,1074.65,784.61ZM641.19,1107.83c7.12-2,14.48-3.41,21.31-6.16,13-5.22,25.15-13.32,38.54-16.41a359.48,359.48,0,0,0,70.78-23.84c28.92-13.41,58.46-24.93,90.28-29.69,3.13-.47,8.23-4,8.23-6,0-5.81-2.08-11.5-10.28-10.53-11.75,1.39-23.68,1.72-35.29,3.82-22.44,4.06-44.67,9.33-67.09,13.56-33.95,6.41-87.14,13.34-111.19,17.86-8,1.5-15.63,5-23.09,8.37-1.41.64-1.95,5-1.61,7.43,1.18,8.5,3.81,16.87,4.27,25.37C626.92,1107.87,624.35,1106,641.19,1107.83Zm465.9-831.36c-13.61-4.64,8.08,3.84-69.43-31.43-1.08-.5-4.51,1.1-4.64,2-2,14.49-9.07,25.93-19.52,36-3,2.89-3.32,8.51-5,12.84-1.4,3.64-3.34,7.13-4.38,10.87q-4.25,15.21-7.73,30.61c-.22,1,1.91,3.32,3.3,3.69,9.61,2.55,19.36,4.55,29,7.09,15.86,4.17,33.13,6,47,13.81,17.38,9.81,22.57-1.31,34.1-4.9,9.11-2.83,8-7.74,2.86-13.23-6.45-6.89-13.38-13.33-19.85-20.2-13.27-14.07-10.94-30.95,5.38-40.62C1100.22,281.79,1102.06,280.18,1107.09,276.47ZM779.53,128.07c14.4-3.51,28.13-6.17,41.33-10.48,4-1.3,6.46-7.17,9.63-11-3.11-2.08-6-4.83-9.35-6.12C632.23,28.83,683,50.32,617.43,26.94c-11.61-4.14-10.56,4.89-19.63,22.79-2.76,5.44-2.47,8.86,4.35,10,7.28,1.25,14.27,6.49,163.76,63.94C770.52,125.47,775.33,126.73,779.53,128.07Zm493.56,142.62c-1.66-.8-3.86-1.33-5.34-2.66-20.42-18.42-41.74-36-60.87-55.64-40.64-41.8-90-68.24-144.47-86.75-7.59-2.58-10.57-.59-12.73,6-1,3.05-2.38,6-3.63,9-5.85,13.87-5.75,13.61,8.89,19.84,35.78,15.23,73.44,26.5,105.24,50.15,99.81,74.24,78.28,96.93,106.49,69.39C1268.67,278,1269.94,275.33,1273.09,270.69ZM837.64,894.3c22.86,0,25.26,3.27,46.43-9,3.88-2.25,4.71-5.08-.48-8.83a183.41,183.41,0,0,1-23.43-20.82c-25.35-25.9-58.31-39.53-89.49-56-4.65-2.46-9-2.78-11.31,4.08-4.8,14.2-10.45,28.1-15.3,42.28-.82,2.41-.42,6.62,1.19,8.23,5.75,5.72,11.49,12.32,18.61,15.62C788.58,881.26,810.9,901,837.64,894.3Zm503.64-364.92c-2.78,2.81-9.34,6.34-9.82,10.56-.92,8,9.42,12.8,18.11,12.09,18-1.48,37.52-11.56,52.66,7.82,1.49,1.9,5.25,2,7.89,3,4.25,1.72,8.71,3.12,12.6,5.45,11.39,6.81,23,13.44,33.65,21.25,8.78,6.42,13.18,3.53,16.61-5.06a13.52,13.52,0,0,1,.75-2c9.36-16.32,14.06-35.64,30.68-47.35,1.14-.8,1.47-4.17.84-5.83-5.45-14.38-10.28-29.11-17.14-42.81-7.12-14.21-9.61-13.86-18.08-.81-3.13,4.82-5.57,10.1-8.91,14.74-2.64,3.66-5.59,8.27-9.43,9.67-21.15,7.75-42.45,15.19-64.06,21.54-8.42,2.47-17.78,2.45-26.7,2.31C1355.36,533.89,1349.82,531.48,1341.28,529.38ZM943.53,695.77c-14.85,4.19-27.14,8.08-39.64,11.07-15,3.61-16.34,6.75-5.83,18.67,8.77,9.94,17.89,19.57,27,29.21,5.7,6,7.78,11.35.66,18.38s-6.1,16.19,2.44,20.46c15.47,7.74,26,17.42,21.58,36.55-.36,1.54.25,4.24,1.36,5,2.42,1.59,6.23,3.93,8.09,3q18.95-9,37.23-19.27c9.07-5.13,8.09-6.29.48-13.57-21.95-21-27.88-28.81-31.83-66.32-.94-9-4.61-10.55-12.25-10.21-2.62.12-7.49-2.21-7.64-3.77-.42-4.33.61-9,2.07-13.21.93-2.69,5.64-6.24,5.18-6.89C949.67,701.1,945.9,698.05,943.53,695.77Zm-193,434.58-1.74-.87c-1.11-8.89-1.9-17.84-3.45-26.65-.94-5.33-4.56-8.23-10.29-6.32-13.78,4.57-27.8,8.61-41.19,14.17-17.87,7.42-35.2,16.11-55.22,16-4.79,0-11.12-1.61-10.13,6.86.83,7.06-4.11,16.67,8.62,18.63,9.15,1.41,18.49,2.85,27.13,6,19.33,7,38.52,14.57,57.28,23,8.45,3.79,13.94,3,16.6-5.66C742.67,1160.55,746.42,1145.4,750.51,1130.35Zm120-1083.86c-1.56,1.89-3.43,3.17-3.82,4.81q-4,16.68-7.42,33.52c-.18.89,1.44,2.72,2.61,3.23,18.82,8.08,37.43,16.76,56.63,23.81,27.53,10.11,55.59,18.77,83.26,28.49,20.33,7.15,20.21,7.47,28.33-14a14.88,14.88,0,0,1,1.61-2.85c4.12-6.32.59-8.54-5-10.58-91-32.89-75.45-27.2-143.51-59C879,51.9,875.16,49.24,870.48,46.49ZM675.74,830.37c0-14.84-.11-14.51-13.11-19.52-6.54-2.52-16.11-1.43-17.55-11.55-1.54-10.79-9.08-16.35-17.56-21.18-6.49-3.7-12.92-7.63-19.75-10.59-16.5-7.14-32.66-15.45-51.11-16.7C538.44,749.59,538,749.74,545,768c3,7.69,6.52,17.3,12.79,21.12,14.66,8.92,28.05,18.78,39.86,31.16,2.94,3.09,7.54,5.29,11.77,6.36,18.3,4.61,36.8,8.43,55.12,13C674.38,842.11,677.66,838.67,675.74,830.37ZM1073.1,422.71c-1.2-1.29-2-2.7-3.16-3.29-13.77-6.93-27.54-13.88-41.52-20.36-1.53-.71-5.55.76-6.45,2.34-14.77,25.9-29.37,51.89-43.48,78.15-1.19,2.22.4,7.68,2.53,9.63,7.8,7.13,7.17,14.29,1.82,22.12-5.07,7.42-9.85,15.08-15.46,22.06-4.7,5.86-1.52,9.14,2.64,12.63,4.79,4,7.13.67,9.82-3,14.43-19.72,28.59-39.66,43.68-58.86,12.24-15.58,25.79-30.12,38.48-45.36C1066.11,433.86,1069.35,428.2,1073.1,422.71Zm-511.26,308c1-1.2,4-3.26,4.43-5.76a329,329,0,0,0,4.39-35.19c.44-7.73,1.73-13.74,9.05-18.08,3.1-1.84,6.72-6.93,6.26-10-3.31-21.79-10.56-42.2-25.11-59.3-1.1-1.3-4.66-2.22-5.85-1.44-8.11,5.31-16.43,10.53-23.52,17-3.23,3-5.71,9-5.27,13.38,3,30,6.81,59.83,10.57,89.7.3,2.41,1.76,6.26,3.35,6.64C546.38,729.22,552.9,729.59,561.84,730.69ZM1048,640.18c11.33-15.93,80.6-122.31,95.49-144.93,2.39-3.62,4.63-15.5,1.81-18.2-3.06-2.92-8-4-10.81-7-5.17-5.61-7.82-5.22-11.61,1.51-68.55,121.38-64.1,110.12-85.74,142.88-1.85,2.81-5.88,7.23-5.19,8.17C1036.22,628.37,1041.55,633.37,1048,640.18ZM944.83,664.85c2.24-2,3.88-3.42,5.39-4.92,8-7.95,15.71-16.23,24-23.82,7.78-7.11,15.3-15.41,24.54-19.78,15.15-7.16,15-5.4,4.13-18a180.75,180.75,0,0,0-38.73-34c-1.75-1.13-6.84-.71-7.29.33-6.7,15.4-17.8,26.79-31,36.62-2.13,1.59-4.38,6.93-3.45,8.12C932,621.9,938.56,635.11,938,651.4c-.12,3.14,3,6.41,4.61,9.6C943.14,662.12,943.84,663.18,944.83,664.85Zm424.23-99.48c-17.88,2-18,2-15.23,18.29,2.06,12.31,4.12,24.65,6.81,36.83.46,2.11,3.84,4.59,6.25,5.09,15.37,3.13,31,5,46.19,8.86,8.88,2.29,14.38,2.93,18.39-7.17,1.94-4.89,7.28-9.7,12.25-11.86,9.16-4,6.54-7.38.63-10.86C1385.17,569.66,1390,574.3,1369.06,565.37Zm139.56,125.7c1-.9,4.72-2.54,5.7-5.19,5.44-14.75,10.39-29.69,15.07-44.71.7-2.24-.28-7.14-1.52-7.53-17.61-5.58-35.39-10.65-53.19-15.63-1-.27-2.61,1-3.61,1.92-10.91,10.05-21.93,20-32.54,30.37-4.43,4.33-3.51,8,3.12,9.18,10.56,1.83,21.2,3.32,31.67,5.57,5.45,1.16,12.76,0,13.77,8.88C1488.6,687.34,1493.11,691.18,1508.62,691.07ZM536.24,877.79c-2.16-6.82-2.47-13.07-11.33-9.21-7.14,3.12-15,4.58-22.55,6.78-33.52,9.77-67.06,19.49-100.53,29.38-2.46.73-6.14,2.43-6.5,4.23-1.44,7.24,12.4,19.62,19.51,18,18.79-4.33,37.5-9.08,56.38-13a128.87,128.87,0,0,0,57.6-27.42C531.94,884,534.17,880.28,536.24,877.79Zm601.59-481.33c2-1.47,4.45-2.53,5.8-4.4,11.61-16,23.18-31.95,34.21-48.3,1.18-1.76-.27-6.66-2.06-8.82-13.09-15.75-30.2-26.41-47.26-37.31-9.77-6.25-15.87,2.29-23.72,3.39,2,4.85,3.9,9.75,6.07,14.54.56,1.24,2.08,2,3,3.16,8.67,11.25,17.83,22.17,25.73,33.93,5.44,8.07,3,12.51-6.66,16.1-6.38,2.37-12.8,4.67-19,7.49-1.4.64-2.77,4.72-2.68,4.78C1119.83,386.22,1128.57,391.18,1137.83,396.46Zm-2.25-174.85c-1.47-2.72-1.89-4.83-3.13-5.58-8.91-5.35-17.48-11.79-27.11-15.28-15-5.45-31-8.37-46.24-13.33-6-1.95-7.73.18-8.84,4.91-2,8.68-4.31,17.33-5.62,26.13-.33,2.27,2,6.43,4.08,7.31,15.86,6.63,32.81,11.12,47.76,19.31,14,7.7,23.28,8.81,30-7.73C1128.78,231.68,1132.62,226.64,1135.58,221.61Zm123.83,98c-2.9,0-4.81-.59-5.94.09-11.62,7-23.56,13.52-34.52,21.42-28.38,20.49-35.35,32.33-58.17,62.43-1.49,2-3.09,6.52-2.39,7.08,7.52,6.06,15.41,11.68,23.46,17,.83.56,4.11-1.09,5.1-2.51,7.48-10.87,15.13-21.66,21.85-33,13.64-23,25.46-47.26,45-66.32C1255.3,324.32,1256.67,322.65,1259.41,319.64Zm-140.51-227c-10.25-4.1-54.86-23.41-69.78-30.07-20.07-9-19.43-8.91-28.56,10.88-4.74,10.27-.34,13.64,8.14,16.77,52.75,19.46,70.54,28.55,73.92,24.94C1108.68,108.69,1113.24,100.81,1118.9,92.66ZM1196.3,175a36.42,36.42,0,0,0,3.9-3.33c5.3-5.9,10.3-12.09,15.83-17.76,4-4.11,3.12-5.81-1.57-8.69-18.91-11.61-37.13-24.38-56.29-35.55s-19.09-10.25-32.17,8.67c-4.7,6.79-2.78,8.33,3.26,11.48,17.78,9.26,37.31,15.68,51,31.81C1184.59,166.79,1190.67,170.43,1196.3,175Zm-99,297.39c-.56-.83-1.37-2.38-1.6-2.3a9.4,9.4,0,0,0-3.65,2.09c-22.57,24.24-10.27,8.56-81.34,97.95-1.43,1.8-3.45,5.63-2.94,6.1,6.29,5.86,12.9,11.41,19.74,16.63.76.58,4.22-.88,5.17-2.26,6.47-9.44,13.39-18.7,18.69-28.79C1073.51,519.75,1093.13,478.83,1097.31,472.43Zm-25.07,233.25,2,2.54c.7,5.68,1.68,11.33,2,17a118.92,118.92,0,0,0,13.72,49c1.1,2.07,5.56,4.11,7.78,3.53,10.31-2.71,20.38-6.32,30.53-9.64,5.4-1.77,6.26-4,2.68-9.27-12.93-18.92-25.1-38.36-37.9-57.36-1.75-2.59-6.46-6-8.11-5.31C1080.25,698.35,1076.42,702.4,1072.24,705.68Zm-197.45,342.6c-25.52,7.6-50.21,14.67-74.53,22.81-1.66.55-1.83,9.49-.53,13.89,1.37,4.62,5.45,7.46,11.07,3.83,16.6-10.69,35.24-11.28,54.18-11.07,24.7.28,27.38,2.69,14.09-22.78C878.09,1053.08,876.78,1051.36,874.79,1048.28ZM527.63,843.75c-.74-8.73.3-16.25-10-13.39-26.16,7.25-52.32,14.45-78.43,21.84-4.32,1.22-9.53,2.1-6.35,9.32,2.29,5.19,3.08,10.1,11.07,7.85,26.1-7.37,52.41-14,78.55-21.29C524.88,847.4,526.7,844.56,527.63,843.75Zm856.43-516.63c-2-1.57-3.69-3.41-5.75-4.33-7.52-3.35-15.2-6.31-22.76-9.57-21.1-9.11-19.58-8.1-32.16,11.36-2.89,4.48-2.74,7.84,3,9.85,11.12,3.88,22,8.35,33.27,11.87,4.91,1.54,10.89,8.47,15.35-1.13C1377.74,339.33,1380.78,333.64,1384.06,327.12Zm20.11,6.35c-1.33,1.54-3.34,3.07-4.26,5.09a86.19,86.19,0,0,0-4.27,12.15c-1.29,4.52-2.35,7.08,5.13,8.79,24,5.51,49.75,1.51,72.77,12.92,1.69.84,6.92-1.92,8-4.18,1.32-2.86,4-7.22-3.36-9.4C1461.08,353.78,1450.63,349.75,1404.17,333.47ZM1012.68,1030c-1-1.28-2-3.29-2.54-3.17a13.79,13.79,0,0,0-5.53,2.55c-15.87,12.9-31.44,26.18-47.51,38.82-11.43,9-11.85,10.49-1.3,21,1.79,1.78,3.45,3.84,5.55,5.17,4.07,2.58,7.32,4.46,11.17-1.85C988.15,1067,1006.28,1041.18,1012.68,1030ZM865.75,163.63c8.6-.46,25.19-16.33,28.38-25.55,1.63-4.69,1.24-7.93-4-9.79-7.75-2.76-15.36-5.87-23.06-8.76-5.52-2.08-10.38-4.11-14.48,3.44-3.4,6.25-7.69,10.49-.69,17.58,4.78,4.83,6.91,12.25,10.37,18.42A36.79,36.79,0,0,0,865.75,163.63ZM1050,900.14c1.33-.58,2.3-1.1,3.32-1.44,9.09-3,18.25-5.77,27.2-9.14,1.15-.43,2.22-4.28,1.57-5.8-3.35-7.9-7.67-15.4-10.86-23.36-2.29-5.74-4.76-6.42-10.18-3.68s-11.59,3.45-17.08,5.89c-4,1.77-10.82,6.3-10.45,7.2,4,9.94,9.14,19.43,14.1,29C1048,899.52,1049.27,899.77,1050,900.14Zm159.46-583.32a59.29,59.29,0,0,0-4-4.56c-5.6-5.1-11.11-10.31-17-15.11C1173.2,284.6,1158,272,1142.33,259.93c-7.3-5.64-8.11,4.12-12,6.5-.67.42.24,5.91,1.88,7.15,16.37,12.47,33.1,24.47,49.62,36.75,4.91,3.65,9.29,8,14.28,11.52,1.51,1.06,4.57,1,6.4.26C1205,321.1,1206.85,318.87,1209.41,316.82Zm62.34,42.56c8.94-7.87-3.63,6.38,44.16-54.14,7.92-10,8-9.84-3.48-15-4.16-1.88-7.09-2.59-9.28,2.8-3.82,9.42-11,16.07-39,52.36-1.47,1.91-3.06,6-2.21,7C1264.42,355.22,1268.13,357,1271.75,359.38ZM955.3,463.16c1.07,2.45,2,4.6,2.94,6.75,2.19-1.21,4.86-2,6.48-3.7,19.55-20.89,27.46-48,38.64-73.34.59-1.33-2.44-4.26-3.78-6.44-3.26,2.42-7.65-6.1-11.17,2.35-8.91,21.39-19.33,42.14-29,63.19C957.76,455.47,956.71,459.24,955.3,463.16Zm382-100.94a25.11,25.11,0,0,0-3.43-3c-8.05-4.75-16.09-12.71-24.27-12.89-5.13-.11-10.51,11.53-15.79,17.87-.7.84-2.1,1.52-2.17,2.36-.17,2-.55,5.15.56,6,7.4,5.7,15.12,11,22.84,16.23,1.26.85,4.1,1.74,4.34,1.37C1325.35,381.25,1331.05,372.13,1337.31,362.22Zm181,218.11.8-.1c0-2.91-.79-6.1.15-8.66,2.54-7-4.17-7.81-6.75-11.35-2.44,1.82-5,3.49-7.3,5.5-7.58,6.72-4.83,3-19.43,31.67,6.74,2.84,13.46,5.74,20.24,8.5,2.31.94,4.9,1.25,7.11,2.34,7.73,3.8,8.69-.59,8-6.6C1520.41,594.51,1519.31,587.43,1518.35,580.33Zm51.56,70.14c-2.81-2.15-5.72-6.24-8.56-6.19-5.37.08-11.88-8.86-15.59-.65-5.68,12.54-9.51,26-13.17,39.31-.65,2.39,3.33,6,5.18,9.12,2-1.53,4.34-2.74,5.83-4.65,7.45-9.58,14.72-19.32,21.94-29.09C1567,656.34,1568,654,1569.91,650.47ZM1097.14,438.1c-1.22-1.44-2.12-3.15-3.53-4-1.2-.69-3.58-1-4.41-.28-3.44,3-4.21,4.86-38.25,46.54-37.9,46.43-30.91,36.23-32.83,42.95,1.47-.43,3.37-.42,4.34-1.37,13-12.89,26.55-25.39,38.75-39.05C1074.62,467.93,1085.25,452.55,1097.14,438.1Zm55.24-206c-1.71,1.95-3.77,3.42-4.41,5.37-.36,1.07,1.31,3.32,2.61,4.38,10.85,8.82,22.07,17.21,32.71,26.28,13.45,11.45,26.45,23.44,39.72,35.1,1.16,1,2.94,1.32,4.43,1.95-.26-1.58,0-3.65-.87-4.68-9.58-10.94-18.75-22.33-29.21-32.37-11.29-10.85-23.79-20.45-35.89-30.44C1159.05,235.71,1156.08,234.36,1152.38,232.12ZM545.84,810.52C544,814,542,816,542.37,817.37c3.72,12.94,7.8,25.77,11.91,38.6.36,1.12,1.7,1.92,2.59,2.87,1-1.19,2.38-2.22,3.07-3.59,3.39-6.74,2.93-16.18,13-18.21.36-.08.87-2.78.39-3.2C564.76,826.37,556,819.06,545.84,810.52ZM1341.94,408c3.76-4.62,5.8-6.46,7-8.74,4-7.55,8.13-15.12,11.5-23,1.12-2.61.16-6.11.15-9.21-3.44,1.43-8.55,1.91-10,4.47a182.25,182.25,0,0,0-11.94,26.21C1337.89,399.69,1340.16,402.78,1341.94,408ZM1087.42,890.93l-2.75,1.44c2.7,6.32,5.14,12.77,8.32,18.83.63,1.21,4.1.94,6.25,1.35,0-1.81.76-4.1-.07-5.36C1095.5,901.61,1091.38,896.32,1087.42,890.93Z"/><path d="M70.63,1146c-4.34-.12-10.22-2.52-12.31-5.82-1.41-2.23,1.47-9.14,4.4-11.74,6.29-5.58,4.44-8.9-.71-13.6-7.32-6.67-9.37-21.15-5-29.66,4.54-8.83,14.91-12.72,26.73-10.12a37,37,0,0,0,5.39.53c18.47,1.15,27,16.16,18.73,32.92-.88,1.78-.84,4-1.22,6,2.24-.8,5.49-1,6.51-2.55,4.46-7,3.25-16.37,3.28-24,.06-14.12,2-15.41,16-12.88,5.3,1,10.92,0,16.3.64,4,.48,10.5,1.32,11.17,3.47,1.16,3.68-1.49,8.49-2.32,12.87-.34,1.79-.87,4.77,0,5.37,12.79,9,12.36,22,8.1,34.09-4.39,12.44-16.06,15.55-28.58,14.73C133.92,1146.1,97.56,1146.75,70.63,1146Z"/><path d="M1092.25,1219.84c9.1,0,18.22-.38,27.3.11,6.87.38,9-2.35,8.53-8.85-.43-5.79.1-11.65-.13-17.46s1.49-8.86,7.94-8.86c6.25,0,8.09,2.72,8.26,8.61.28,10.08,1.3,20.14,2.07,30.2.68,8.78-3.19,12.54-12.11,12.38-17.83-.33-35.68.19-53.51-.24-6.49-.16-10.1,2.29-12.57,7.91-15,34.07-32.87,67-42.24,103.37-1,4-3.75,9.43-7,10.7-9.76,3.79-16-2.82-12.7-13.77,13.27-44.73,24.07-63.27,36.58-91.87,4-9.19,7.16-18.79,11.58-27.77,1.14-2.32,5.55-4.09,8.56-4.26C1072.57,1219.51,1082.42,1219.84,1092.25,1219.84Z"/><path d="M1158.59,1286.08c0-9.09-.48-18.21.28-27.24.24-2.92,3.73-5.57,5.73-8.35,2.61,2.18,7.12,4,7.55,6.58,11.4,67.73,9.87,77,11.21,100.47.38,6.76-1.8,11.66-9.45,11.49-7-.17-8.3-4.84-8.92-11-2.39-23.93-5.37-47.8-8.14-71.69Z"/><path d="M123,366.21c77.89-12.45,166.77-10.11,226.66,48.19,20.23,19.69,35.21,43.85,47.38,69.16,15.12,31.45,22.59,68.38,39.88,98,8.05,13.79,21.33,25.47,37.17,27.54,16.16,2.11,31.87-5.87,45.47-14.86C586.45,550,618.06,471.19,683.25,424.33c64.25-46.19,143.8-70.05,222.65-70.93,107.43-1.2,212.84,37.71,302.15,97.42,60.08,40.16,139.39,111.85,126.23,192.76-10.28,63.2-64.17,93.31-117.48,117.54q-117,53.19-234,106.35C950,882.38,915,899.33,898,931.11c-24,44.81-2.19,101,29.33,140.84,68.94,87.21,185.89,133.78,295.91,117.86" fill="none" stroke="aqua" stroke-miterlimit="10" stroke-width="10"/></g></g></svg>